<svg width="60" height="60" viewBox="0 0 60 60" fill="none" xmlns="http://www.w3.org/2000/svg">
<path d="M38.4225 36.8785C38.2962 38.1224 38.1468 39.2067 37.9918 40.1509C37.574 42.6512 36.9866 44.8197 34.9147 46.1675C32.9397 47.4478 30.4997 47.1872 28.9537 45.5796C26.3761 42.8929 23.5934 40.1998 20.7487 37.5035C19.6429 36.4549 18.1285 35.862 16.5612 35.8619H14.6832C12.7242 35.8616 11.0607 34.372 11.024 32.5347C10.9899 30.7127 10.9925 28.889 11.0319 27.067C11.0744 25.2295 12.74 23.7409 14.6969 23.7408H16.7399C18.2797 23.7407 19.7692 23.168 20.8698 22.15C21.1756 21.8669 21.4787 21.5813 21.7828 21.2984L38.4225 36.8785ZM28.9645 14.3746C30.5155 12.8036 32.9242 12.5695 34.8834 13.8287C36.9712 15.175 37.5737 17.3528 37.9938 19.8658C38.3849 22.2489 38.751 25.5235 38.7555 30.0084C38.7547 30.6994 38.7439 31.3619 38.7272 31.9966L24.5358 18.7105C26.0568 17.2628 27.5425 15.819 28.9645 14.3746Z" fill="white"/>
<path d="M43.0674 41.2275C42.784 41.1507 42.5133 41.0093 42.2803 40.7997C42.0266 40.5715 41.8483 40.2907 41.7451 39.9892L43.0674 41.2275ZM42.2803 19.1738C43.0744 18.4591 44.298 18.5223 45.0127 19.3163C47.5836 22.1723 48.999 25.9622 48.999 29.9863C48.999 33.2985 48.0387 36.451 46.2656 39.0556L43.3945 36.3681C44.5225 34.5045 45.1309 32.302 45.1309 29.9863C45.1308 26.9196 44.068 24.0494 42.1377 21.9052C41.4231 21.1112 41.4864 19.8885 42.2803 19.1738Z" fill="white"/>
<rect width="60.9527" height="3.82696" rx="1.91348" transform="matrix(0.729973 0.683476 -0.797387 0.603468 9.22327 9.10553)" fill="white"/>
</svg>
