<svg width="60" height="60" viewBox="0 0 60 60" fill="none" xmlns="http://www.w3.org/2000/svg">
<path d="M14.6835 35.8625H16.5612C18.1287 35.8625 19.6435 36.4548 20.7494 37.5035C23.5942 40.1999 26.3766 42.8933 28.9542 45.58C30.5002 47.1876 32.9398 47.4481 34.9148 46.1678C36.9869 44.82 37.5748 42.6521 37.9926 40.1516C38.3837 37.7685 38.7504 34.4939 38.7556 30.0089C38.7511 25.5239 38.3852 22.2493 37.9941 19.8662C37.574 17.3531 36.9721 15.1755 34.8843 13.8292C32.925 12.5697 30.5158 12.8035 28.9646 14.3747C26.4182 16.9613 23.6758 19.5537 20.8703 22.1499C19.7697 23.1682 18.2801 23.7411 16.7401 23.7411H14.6976C12.7404 23.7411 11.075 25.23 11.0326 27.0676C10.9933 28.8897 10.9903 30.7125 11.0245 32.5346C11.0609 34.3722 12.7248 35.8618 14.6842 35.8618L14.6835 35.8625Z" fill="white"/>
<path d="M43.5747 41.2961C43.1138 41.2961 42.6506 41.1321 42.281 40.7996C41.4869 40.0848 41.4223 38.8617 42.1378 38.0676C44.0682 35.9234 45.131 33.0534 45.131 29.9866C45.131 26.9199 44.0682 24.0499 42.1378 21.9057C41.4231 21.1116 41.4869 19.8884 42.281 19.1737C43.0752 18.459 44.2983 18.5228 45.013 19.317C47.584 22.1729 49.0001 25.9625 49.0001 29.9866C49.0001 34.0108 47.584 37.8004 45.013 40.6563C44.6308 41.0809 44.1038 41.2968 43.5747 41.2968V41.2961Z" fill="white"/>
</svg>
