<svg width="77" height="41" viewBox="0 0 77 41" fill="none" xmlns="http://www.w3.org/2000/svg">
<path d="M2.86056 2.85379C8.83401 5.52737 13.9243 9.3955 18.7057 13.5252C24.9649 19.0696 30.6234 25.2815 35.1392 32.4467C36.2731 34.2857 37.3505 36.1556 38.2159 38.2091C36.1634 37.3436 34.2929 36.2668 32.4534 35.1324C25.2883 30.6167 19.0764 24.9581 13.532 18.699C9.40227 13.9175 5.53396 8.82827 2.86056 2.85379Z" fill="white"/>
<path d="M73.571 2.85422C70.8974 8.82766 67.0293 13.9179 62.8996 18.6994C57.3552 24.9586 51.1433 30.6171 43.9781 35.1329C42.1391 36.2668 40.2692 37.3442 38.2157 38.2096C39.0812 36.157 40.158 34.2866 41.2924 32.4471C45.8081 25.282 51.4667 19.07 57.7258 13.5257C62.5073 9.39592 67.5965 5.52761 73.571 2.85422Z" fill="white"/>
</svg>
