<svg width="1920" height="3552" viewBox="0 0 1920 3552" fill="none" xmlns="http://www.w3.org/2000/svg">
<g clip-path="url(#clip0_207_104)">
<rect width="1920" height="3552" fill="url(#paint0_linear_207_104)"/>
<g style="mix-blend-mode:overlay" opacity="0.26">
<path d="M1831.51 104.946L1890.13 561.455C1891.84 574.692 1909.4 578.204 1916.02 566.588L2144.88 167.261C2152.99 153.078 2174.69 162.083 2170.41 177.842L2049.88 622.013C2046.37 634.89 2061.27 644.841 2071.85 636.691L2436.1 355.33C2449.03 345.335 2465.64 361.949 2455.65 374.871L2174.28 739.123C2166.14 749.704 2176.09 764.562 2188.96 761.095L2633.13 640.564C2648.89 636.286 2657.9 657.988 2643.72 666.093L2244.39 894.955C2232.82 901.574 2236.28 919.133 2249.52 920.844L2706.03 979.467C2722.24 981.538 2722.24 1005 2706.03 1007.11L2249.52 1065.73C2236.28 1067.45 2232.77 1085.01 2244.39 1091.62L2643.72 1320.49C2657.9 1328.59 2648.89 1350.29 2633.13 1346.02L2188.96 1225.48C2176.09 1221.97 2166.14 1236.87 2174.28 1247.46L2455.65 1611.71C2465.64 1624.63 2449.03 1641.24 2436.1 1631.25L2071.85 1349.89C2061.27 1341.74 2046.41 1351.69 2049.88 1364.57L2170.41 1808.74C2174.69 1824.5 2152.99 1833.5 2144.88 1819.32L1916.02 1419.99C1909.4 1408.42 1891.84 1411.89 1890.13 1425.12L1831.51 1881.63C1829.44 1897.84 1805.98 1897.84 1803.86 1881.63L1745.24 1425.12C1743.53 1411.89 1725.97 1408.37 1719.35 1419.99L1490.49 1819.32C1482.39 1833.5 1460.68 1824.5 1464.96 1808.74L1585.49 1364.57C1589 1351.69 1574.1 1341.74 1563.52 1349.89L1199.27 1631.25C1186.35 1641.24 1169.73 1624.63 1179.73 1611.71L1461.09 1247.46C1469.24 1236.87 1459.29 1222.02 1446.41 1225.48L1002.24 1346.02C986.48 1350.29 977.475 1328.59 991.658 1320.49L1390.98 1091.62C1402.56 1085.01 1399.09 1067.45 1385.85 1065.73L929.343 1007.11C913.134 1005.04 913.134 981.583 929.343 979.467L1385.85 920.844C1399.09 919.133 1402.6 901.574 1390.98 894.955L991.658 666.093C977.475 657.988 986.48 636.286 1002.24 640.564L1446.41 761.095C1459.29 764.607 1469.24 749.704 1461.09 739.123L1179.77 374.916C1169.78 361.994 1186.39 345.38 1199.31 355.375L1563.57 636.736C1574.15 644.886 1589 634.935 1585.54 622.058L1465.01 177.887C1460.73 162.128 1482.43 153.123 1490.53 167.306L1719.4 566.633C1726.02 578.204 1743.58 574.737 1745.29 561.5L1803.86 104.946C1805.93 88.7372 1829.39 88.7372 1831.51 104.946Z" stroke="#D9F233" stroke-width="3" stroke-linejoin="round" stroke-dasharray="23 23"/>
</g>
<g style="mix-blend-mode:overlay" opacity="0.26">
<path d="M290.174 1687.52L348.797 2144.03C350.508 2157.27 368.067 2160.78 374.686 2149.16L603.548 1749.84C611.653 1735.65 633.355 1744.66 629.077 1760.42L508.546 2204.59C505.034 2217.47 519.937 2227.42 530.518 2219.27L894.77 1937.91C907.692 1927.91 924.306 1944.52 914.311 1957.45L632.95 2321.7C624.8 2332.28 634.751 2347.14 647.628 2343.67L1091.8 2223.14C1107.56 2218.86 1116.56 2240.56 1102.38 2248.67L703.053 2477.53C691.482 2484.15 694.949 2501.71 708.186 2503.42L1164.69 2562.04C1180.9 2564.11 1180.9 2587.57 1164.69 2589.69L708.186 2648.31C694.949 2650.02 691.437 2667.58 703.053 2674.2L1102.38 2903.06C1116.56 2911.17 1107.56 2932.87 1091.8 2928.59L647.628 2808.06C634.751 2804.55 624.8 2819.45 632.95 2830.03L914.311 3194.28C924.306 3207.2 907.692 3223.82 894.77 3213.82L530.518 2932.46C519.937 2924.31 505.079 2934.26 508.546 2947.14L629.077 3391.31C633.355 3407.07 611.653 3416.08 603.548 3401.89L374.686 3002.57C368.067 2990.99 350.508 2994.46 348.797 3007.7L290.174 3464.21C288.103 3480.42 264.645 3480.42 262.529 3464.21L203.906 3007.7C202.195 2994.46 184.636 2990.95 178.017 3002.57L-50.8451 3401.89C-58.9496 3416.08 -80.6516 3407.07 -76.3743 3391.31L44.1576 2947.14C47.6696 2934.26 32.7663 2924.31 22.1855 2932.46L-342.067 3213.82C-354.989 3223.82 -371.603 3207.2 -361.608 3194.28L-80.2464 2830.03C-72.0969 2819.45 -82.0474 2804.59 -94.9246 2808.06L-539.096 2928.59C-554.855 2932.87 -563.86 2911.17 -549.677 2903.06L-150.35 2674.2C-138.779 2667.58 -142.246 2650.02 -155.483 2648.31L-611.992 2589.69C-628.201 2587.62 -628.201 2564.16 -611.992 2562.04L-155.483 2503.42C-142.246 2501.71 -138.734 2484.15 -150.35 2477.53L-549.677 2248.67C-563.86 2240.56 -554.855 2218.86 -539.096 2223.14L-94.9246 2343.67C-82.0474 2347.18 -72.0969 2332.28 -80.2464 2321.7L-361.563 1957.49C-371.558 1944.57 -354.944 1927.95 -342.022 1937.95L22.2305 2219.31C32.8113 2227.46 47.6696 2217.51 44.2027 2204.63L-76.3293 1760.46C-80.6066 1744.7 -58.9046 1735.7 -50.8001 1749.88L178.062 2149.21C184.681 2160.78 202.24 2157.31 203.951 2144.07L262.529 1687.52C264.6 1671.31 288.058 1671.31 290.174 1687.52Z" stroke="#D9F233" stroke-width="3" stroke-linejoin="round" stroke-dasharray="23 23"/>
</g>
</g>
<defs>
<linearGradient id="paint0_linear_207_104" x1="1920" y1="1776" x2="0" y2="1776" gradientUnits="userSpaceOnUse">
<stop stop-color="#FD575A"/>
<stop offset="1" stop-color="#8D52FD"/>
</linearGradient>
<clipPath id="clip0_207_104">
<rect width="1920" height="3552" fill="white"/>
</clipPath>
</defs>
</svg>
