<svg width="651" height="851" viewBox="0 0 651 851" fill="none" xmlns="http://www.w3.org/2000/svg">
<g clip-path="url(#clip0_204_5)">
<path d="M62.6571 846.763C69.6571 839.763 73.1571 831.052 73.1571 820.622V691.643C73.1571 689.363 72.1771 686.063 70.2271 681.753C68.2771 677.443 65.8271 673.813 62.8971 670.883H168.667C180.397 670.883 209.827 668.853 216.827 664.773C220.077 680.243 226.757 695.882 236.857 711.672C232.297 712.652 229.127 713.143 227.337 713.143C218.287 713.143 209.417 711.422 200.527 710.222C190.167 708.822 180.047 705.662 170.737 700.922C162.497 696.732 155.037 690.982 146.547 687.282C137.127 683.162 127.507 682.372 117.367 682.372V738.073C122.417 738.563 136.297 738.802 141.187 738.802C155.847 738.802 167.287 737.793 175.507 735.753C183.727 733.723 190.857 730.172 196.877 725.122C204.527 745.972 210.967 761.272 216.177 771.052L218.867 776.182L207.387 778.383C194.237 768.363 177.897 760.303 161.817 756.143C147.317 752.393 131.857 752.453 117.397 756.312C117.317 769.062 117.367 781.823 117.367 794.573V827.482C117.367 829.922 118.297 833.063 120.177 836.893C122.047 840.723 124.777 844.012 128.357 846.782H62.6571V846.763Z" fill="white"/>
<path d="M229.467 846.722C232.067 844.772 234.147 842.122 235.697 838.782C237.247 835.442 238.017 832.552 238.017 830.112V746.323C238.017 740.303 235.167 734.763 229.467 729.713L278.567 714.812V738.023C283.457 729.553 288.337 723.772 293.217 720.682C298.107 717.592 303.637 716.042 309.827 716.042C316.017 716.042 321.427 718.123 325.587 722.273C329.737 726.423 331.817 731.763 331.817 738.273C331.817 744.783 330.147 750.242 326.807 754.152C323.467 758.062 319.197 760.013 313.977 760.013C310.717 760.013 307.137 759.123 303.227 757.323C301.927 756.673 300.297 755.693 298.337 754.393C296.387 753.093 294.677 751.952 293.207 750.972C291.747 749.992 290.847 749.503 290.517 749.503C288.887 749.503 287.097 750.073 285.147 751.213C283.197 752.353 281.567 753.413 280.267 754.393L278.557 756.102V831.583C278.557 834.183 279.447 837.043 281.247 840.133C283.037 843.233 285.317 845.432 288.087 846.732H229.457L229.467 846.722Z" fill="white"/>
<path d="M376.387 842.572L374.987 842.442C369.417 841.932 362.417 843.262 354.017 846.422C348.457 835.452 341.917 824.062 334.407 812.262C339.127 810.082 343.897 809.203 348.697 809.643C359.227 810.603 372.667 818.112 389.037 832.192C392.237 834.772 397.017 836.352 403.367 836.922C408.477 837.382 412.647 836.132 415.887 833.152C419.117 830.182 420.907 826.903 421.227 823.333C421.567 819.603 420.517 816.112 418.077 812.872C415.637 809.622 410.517 806.263 402.717 802.773C398.217 800.733 393.947 798.782 389.897 796.942C385.847 795.102 382.247 793.472 379.097 792.032C375.947 790.602 371.677 788.663 366.277 786.213C358.317 782.713 352.377 777.632 348.457 770.982C344.527 764.332 342.907 757.352 343.567 750.052C344.527 739.512 349.107 730.322 357.317 722.482C365.527 714.642 375.737 711.283 387.977 712.393C392.157 712.773 397.947 713.912 405.347 715.812C412.747 717.712 416.987 718.712 418.077 718.812C421.637 719.132 425.757 718.452 430.447 716.742C431.707 719.962 433.547 724.222 435.957 729.512C438.367 734.802 440.497 739.242 442.357 742.852L444.897 748.482C440.767 749.252 437.307 749.512 434.527 749.262C430.807 748.922 428.077 748.513 426.327 748.023C424.577 747.543 421.667 746.002 417.617 743.432C413.557 740.852 408.267 736.822 401.737 731.322C396.077 726.562 390.777 723.952 385.817 723.502C382.717 723.222 380.017 724.202 377.707 726.442C375.397 728.682 374.097 731.352 373.817 734.432C373.217 741.082 379.487 747.622 392.647 754.052C397.267 756.432 408.477 761.133 426.267 768.143C434.447 770.853 440.697 775.993 445.007 783.583C449.307 791.173 451.117 798.773 450.427 806.393C449.397 817.743 444.387 827.712 435.417 836.302C426.437 844.892 414.827 848.532 400.587 847.242C394.547 846.692 386.487 845.142 376.417 842.592L376.387 842.572Z" fill="white"/>
<path d="M531.817 736.213H510.567V819.513C510.567 822.603 511.627 825.093 513.747 826.963C515.857 828.833 518.797 829.773 522.537 829.773C528.397 829.773 533.447 828.223 537.677 825.133C536.047 831.813 532.097 837.712 525.827 842.842C519.557 847.972 511.297 850.542 501.037 850.542C491.427 850.542 483.897 847.852 478.437 842.482C472.977 837.112 470.257 829.942 470.257 820.982V736.222H457.067C476.117 722.212 489.737 715.312 510.567 704.162V720.342H531.817V736.222V736.213Z" fill="white"/>
<path d="M552.867 826.943C552.867 819.453 555.227 813.622 559.957 809.472C564.677 805.322 570.617 803.242 577.787 803.242C583.817 803.242 589.067 805.523 593.547 810.083C598.027 814.643 600.267 820.023 600.267 826.203C600.267 832.383 598.027 837.853 593.547 842.573C589.067 847.293 583.327 849.652 576.327 849.652C569.327 849.652 563.457 847.412 559.227 842.932C554.987 838.452 552.877 833.122 552.877 826.932L552.867 826.943Z" fill="white"/>
<path d="M183.357 440.638C183.357 440.638 183.397 440.618 183.417 440.598" stroke="white" stroke-linecap="round" stroke-linejoin="round"/>
<path d="M344.197 390.618C344.107 390.678 344.047 390.728 343.967 390.788C343.967 390.788 343.967 390.808 343.987 390.808C344.047 390.748 344.137 390.678 344.197 390.618Z" fill="white"/>
<path d="M236.717 366.008C224.037 369.298 210.687 369.148 198.117 365.368C195.277 364.518 193.617 368.838 196.467 369.698C209.807 373.708 224.017 374.078 237.517 370.568C240.377 369.828 239.607 365.258 236.717 366.008Z" fill="white"/>
<path d="M258.627 348.258C245.517 345.838 232.917 342.038 220.957 336.138C218.557 334.948 216.027 333.908 213.357 333.708C211.777 333.588 210.147 333.798 208.687 334.408C207.577 334.868 206.157 335.868 205.457 336.848C203.287 335.188 203.307 334.598 201.857 333.958C199.917 333.098 198.557 334.058 196.877 335.188C193.687 337.338 190.727 340.768 189.387 344.268C189.197 344.778 187.137 350.218 188.457 350.308C199.437 351.088 210.437 351.738 221.447 351.968C237.507 352.308 253.637 351.768 269.547 349.478C266.037 349.388 262.367 348.958 258.617 348.268L258.627 348.258Z" fill="white"/>
<path d="M650.307 151.948C633.067 143.478 618.807 130.068 609.287 113.388C577.807 124.308 542.067 140.978 505.567 137.598C472.277 140.268 479.097 81.4179 471.477 58.0479C472.037 37.0079 441.487 35.2679 430.107 19.7379C401.007 -10.9821 313.577 5.18789 271.237 4.64789C232.437 11.3179 174.847 11.2679 146.447 31.2479C180.647 51.7879 156.767 107.138 158.357 141.928C132.407 165.238 -6.62298 134.498 0.907023 161.148C25.337 201.358 109.317 212.998 154.057 222.738C170.837 248.338 157.327 277.528 166.817 304.698C172.677 334.168 191.957 318.088 210.747 311.248C252.997 294.008 300.297 292.488 340.507 269.298C339.567 303.078 356.817 335.368 384.867 354.128C387.057 355.588 389.627 352.278 387.667 350.498C365.157 329.878 354.247 297.458 359.187 267.398C357.877 275.438 390.387 315.138 391.757 300.848C378.067 287.428 371.147 266.368 383.497 249.748C404.567 235.818 431.827 231.898 455.127 221.818C462.807 260.368 444.057 314.588 401.507 292.498C403.967 324.478 374.907 481.248 423.687 466.688C409.987 458.288 413.397 432.118 429.427 449.488C463.547 499.568 442.437 567.788 471.367 621.548C431.027 611.958 416.537 569.498 396.667 538.408C413.557 527.718 427.777 512.758 438.957 496.228C437.647 485.718 392.467 523.778 381.687 525.638C247.387 491.708 227.797 436.858 227.797 436.858C227.797 436.858 261.757 470.488 352.577 386.368C315.337 405.338 245.977 460.048 217.907 421.678C198.957 401.268 195.297 394.988 185.937 383.268C181.607 393.398 197.887 405.968 199.577 416.848C177.237 453.528 128.617 465.618 91.677 457.908C75.717 454.578 49.657 475.608 60.997 482.538C153.317 413.518 246.747 609.598 304.887 664.018C306.527 665.938 309.127 663.828 308.757 661.768C296.267 616.458 330.287 583.038 348.147 545.558C386.927 569.468 432.197 638.448 480.087 628.138C480.807 603.718 471.337 577.338 468.547 552.328C464.617 528.248 460.787 503.438 462.347 478.948C476.467 482.588 491.007 484.078 505.567 483.328C515.907 525.508 532.287 576.298 578.607 589.908C581.087 590.638 576.487 586.838 573.757 585.478C528.347 564.488 529.337 509.108 516.927 468.398C497.707 466.718 476.867 469.398 458.527 463.098C448.557 452.468 426.577 412.298 413.707 437.088C412.417 424.568 413.007 411.888 412.897 399.328C427.247 412.538 449.757 416.868 468.707 416.528C481.477 415.568 487.227 397.748 499.927 400.038C508.837 404.158 546.827 399.398 536.567 387.108C522.197 389.438 508.347 380.318 498.467 369.418C520.637 379.268 547.867 374.368 567.777 360.488C571.317 353.108 540.837 353.878 534.747 346.388C591.057 331.128 506.527 346.598 507.777 297.688C506.757 273.898 526.317 254.718 525.577 230.808C526.497 218.428 514.797 209.568 514.927 197.748C550.487 183.138 630.577 179.368 650.337 151.948H650.307ZM297.427 638.698C249.387 580.438 202.527 521.248 154.427 463.058C166.917 456.138 188.507 446.128 206.357 424.798C234.877 448.088 246.637 492.508 268.807 524.898C311.857 577.158 280.137 531.328 259.747 489.748C276.047 500.888 322.827 525.298 342.067 530.528C322.957 559.948 292.307 601.448 297.427 638.698ZM445.727 130.108L438.077 73.2579C427.897 65.0079 381.107 33.7879 394.207 17.4979C440.537 88.8879 457.587 21.7579 466.467 129.028C466.467 129.028 453.377 119.188 445.737 130.108H445.727Z" fill="white"/>
</g>
<defs>
<clipPath id="clip0_204_5">
<rect width="649.7" height="849.6" fill="white" transform="translate(0.607056 0.867905)"/>
</clipPath>
</defs>
</svg>
