<svg width="300" height="300" viewBox="0 0 300 300" fill="none" xmlns="http://www.w3.org/2000/svg">
<path d="M151.904 27.6442L159.978 90.5213C160.214 92.3445 162.632 92.8283 163.544 91.2283L195.066 36.2271C196.183 34.2736 199.172 35.5139 198.583 37.6844L181.981 98.8623C181.497 100.636 183.55 102.007 185.007 100.884L235.178 62.1308C236.957 60.7541 239.246 63.0424 237.869 64.8222L199.116 114.992C197.993 116.45 199.364 118.496 201.138 118.019L262.315 101.417C264.486 100.828 265.726 103.817 263.773 104.934L208.772 136.456C207.178 137.368 207.655 139.786 209.479 140.022L272.356 148.096C274.588 148.381 274.588 151.612 272.356 151.904L209.479 159.978C207.655 160.214 207.172 162.632 208.772 163.544L263.773 195.066C265.726 196.183 264.486 199.172 262.315 198.583L201.138 181.981C199.364 181.497 197.993 183.55 199.116 185.008L237.869 235.178C239.246 236.958 236.957 239.246 235.178 237.869L185.007 199.116C183.55 197.993 181.504 199.364 181.981 201.138L198.583 262.316C199.172 264.486 196.183 265.726 195.066 263.773L163.544 208.772C162.632 207.178 160.214 207.655 159.978 209.479L151.904 272.356C151.619 274.588 148.388 274.588 148.096 272.356L140.022 209.479C139.786 207.655 137.367 207.172 136.456 208.772L104.934 263.773C103.817 265.726 100.828 264.486 101.417 262.316L118.019 201.138C118.502 199.364 116.45 197.993 114.992 199.116L64.8222 237.869C63.0424 239.246 60.754 236.958 62.1307 235.178L100.884 185.008C102.006 183.55 100.636 181.504 98.8623 181.981L37.6844 198.583C35.5138 199.172 34.2735 196.183 36.227 195.066L91.2282 163.544C92.822 162.632 92.3445 160.214 90.5212 159.978L27.6441 151.904C25.4116 151.619 25.4116 148.388 27.6441 148.096L90.5212 140.022C92.3445 139.786 92.8282 137.368 91.2282 136.456L36.227 104.934C34.2735 103.817 35.5138 100.828 37.6844 101.417L98.8623 118.019C100.636 118.503 102.006 116.45 100.884 114.992L62.1369 64.8284C60.7602 63.0486 63.0486 60.7603 64.8284 62.137L114.999 100.89C116.456 102.013 118.502 100.642 118.025 98.8685L101.423 37.6906C100.834 35.5201 103.823 34.2798 104.94 36.2333L136.462 91.2345C137.374 92.8283 139.792 92.3507 140.028 90.5275L148.096 27.6442C148.381 25.4117 151.612 25.4117 151.904 27.6442Z" fill="#FB575C"/>
</svg>
