<svg width="181" height="77" viewBox="0 0 181 77" fill="none" xmlns="http://www.w3.org/2000/svg">
<path d="M142.73 73.7639C145.404 67.7905 149.272 62.7002 153.402 57.9188C158.946 51.6596 165.158 46.0011 172.323 41.4853C174.162 40.3514 176.032 39.274 178.086 38.4086C177.22 40.4611 176.143 42.3316 175.009 44.1711C170.493 51.3362 164.835 57.5481 158.575 63.0925C153.794 67.2222 148.705 71.0906 142.73 73.7639Z" fill="white"/>
<path d="M142.73 3.05301C148.703 5.72659 153.793 9.59471 158.575 13.7245C164.834 19.2688 170.493 25.4808 175.008 32.6459C176.142 34.4849 177.22 36.3548 178.085 38.4083C176.033 37.5428 174.162 36.466 172.323 35.3317C165.157 30.8159 158.946 25.1574 153.401 18.8982C149.271 14.1167 145.403 9.02749 142.73 3.05301Z" fill="white"/>
<path d="M38.0849 3.05343C35.4114 9.02688 31.5432 14.1171 27.4135 18.8986C21.8691 25.1578 15.6572 30.8163 8.49205 35.3321C6.653 36.466 4.78313 37.5434 2.72959 38.4088C3.59516 36.3563 4.67192 34.4858 5.80628 32.6463C10.322 25.4812 15.9806 19.2692 22.2398 13.7249C27.0212 9.59514 32.1104 5.72683 38.0849 3.05343Z" fill="white"/>
<path d="M38.0855 73.7644C32.112 71.0908 27.0218 67.2227 22.2403 63.0929C15.9811 57.5486 10.3226 51.3366 5.80684 44.1715C4.67291 42.3324 3.59554 40.4626 2.73015 38.409C4.78265 39.2746 6.65313 40.3514 8.49261 41.4857C15.6577 46.0015 21.8697 51.66 27.414 57.9192C31.5438 62.7007 35.4121 67.7899 38.0855 73.7644Z" fill="white"/>
<circle cx="90.5" cy="38.5" r="14" stroke="white" stroke-width="11"/>
</svg>
