<svg width="217" height="119" viewBox="0 0 217 119" fill="none" xmlns="http://www.w3.org/2000/svg">
<g clip-path="url(#clip0_193_205)">
<path d="M70.3325 109.37V109.375C70.3325 109.375 70.3473 109.364 70.3537 109.353C70.4762 109.275 70.5544 109.135 70.5079 108.953C70.4065 108.54 70.3283 108.126 70.2755 107.711C70.2713 108.02 70.2755 108.327 70.2903 108.636C70.2966 108.881 70.3114 109.129 70.3325 109.37Z" fill="white"/>
<path d="M108.426 69.5642C109.618 68.3702 110.216 66.8819 110.216 65.1015V43.0846C110.216 42.6951 110.049 42.132 109.717 41.3952C109.385 40.6585 108.969 40.0404 108.468 39.5407H126.489C128.485 39.5407 133.501 39.1936 134.693 38.4992C135.246 41.1412 136.385 43.8086 138.105 46.5057C137.327 46.6729 136.786 46.7555 136.482 46.7555C134.942 46.7555 133.429 46.4612 131.914 46.2559C130.15 46.0167 128.426 45.4768 126.839 44.6681C125.436 43.9526 124.164 42.9724 122.719 42.3394C121.114 41.6366 119.476 41.5011 117.748 41.5011V51.0086C118.608 51.0911 120.974 51.1335 121.807 51.1335C124.304 51.1335 126.252 50.9599 127.653 50.6127C129.053 50.2655 130.268 49.66 131.293 48.7984C132.597 52.3571 133.693 54.9695 134.581 56.6377L135.039 57.5142L133.083 57.8889C130.841 56.1783 128.058 54.8023 125.32 54.0931C122.85 53.4537 120.216 53.4643 117.752 54.1227C117.737 56.299 117.748 58.4774 117.748 60.6537V66.2701C117.748 66.6872 117.906 67.2228 118.225 67.8748C118.544 68.529 119.009 69.09 119.62 69.5642H108.424H108.426Z" fill="white"/>
<path d="M136.928 58.3885C136.924 56.4705 137.232 54.7388 137.855 53.1955C138.476 51.6522 139.292 50.4264 140.304 49.5203C141.316 48.6164 142.402 47.9262 143.566 47.4499C144.73 46.9757 145.909 46.7365 147.103 46.7343C149.738 46.7301 152.085 47.7823 154.143 49.8908C156.199 51.9993 157.232 54.6943 157.238 57.9757C157.244 61.6741 156.237 64.5871 154.217 66.7168C152.195 68.8465 149.755 69.9156 146.898 69.9198C145.732 69.922 144.58 69.687 143.442 69.217C142.303 68.747 141.24 68.0611 140.253 67.1593C139.267 66.2574 138.466 65.0422 137.853 63.5159C137.24 61.9895 136.932 60.279 136.928 58.3885ZM149.423 64.3288L149.402 53.2357C149.4 51.6522 149.188 50.5534 148.772 49.9416C148.354 49.3319 147.731 49.0271 146.898 49.0271C145.428 49.0292 144.694 50.13 144.699 52.3254L144.72 63.8334C144.724 66.4755 145.489 67.7944 147.016 67.7901C148.624 67.788 149.427 66.6321 149.423 64.3246V64.3288Z" fill="white"/>
<path d="M158.314 69.5557C158.757 69.2233 159.11 68.7703 159.374 68.2008C159.638 67.6313 159.769 67.1381 159.769 66.721V52.4185C159.769 51.3896 159.283 50.4455 158.314 49.5838L166.678 47.0392V51.0001C167.511 49.5542 168.343 48.5677 169.176 48.0405C170.008 47.5134 170.95 47.2488 172.007 47.2488C173.063 47.2488 173.982 47.6023 174.69 48.3115C175.398 49.0207 175.751 49.931 175.751 51.0425C175.751 52.1539 175.465 53.0854 174.897 53.7522C174.329 54.4191 173.6 54.7536 172.712 54.7536C172.157 54.7536 171.548 54.6012 170.881 54.2942C170.659 54.1841 170.382 54.0169 170.048 53.7946C169.716 53.5723 169.425 53.3775 169.173 53.2103C168.924 53.043 168.772 52.9605 168.715 52.9605C168.438 52.9605 168.132 53.0579 167.8 53.2526C167.468 53.4474 167.19 53.6273 166.968 53.7946L166.676 54.0867V66.973C166.676 67.4175 166.828 67.9044 167.135 68.4316C167.439 68.9608 167.828 69.3355 168.299 69.5578H158.312L158.314 69.5557Z" fill="white"/>
<path d="M188.658 69.09L188.491 67.8812C186.549 69.1048 184.578 69.7166 182.581 69.7166C180.694 69.7166 179.127 69.0921 177.878 67.8409C176.629 66.5898 176.006 64.9787 176.006 63.0036C176.006 61.8921 176.325 60.7511 176.963 59.5846C177.629 58.3334 178.613 57.2707 179.919 56.3943C181.223 55.5178 183.498 54.6075 186.743 53.6633C186.743 52.8017 186.494 52.0713 185.995 51.4743C185.495 50.8773 184.704 50.5788 183.623 50.5788C182.097 50.5788 180.32 51.2033 178.296 52.4545C177.965 52.6768 177.713 52.8292 177.548 52.9139C177.743 51.3304 178.679 49.8908 180.358 48.5973C182.036 47.3038 184.221 46.6581 186.912 46.6581C190.935 46.6581 193.223 48.9508 193.779 53.5384L195.277 66.3823C195.387 67.4937 195.942 68.3977 196.942 69.0921H188.66L188.658 69.09ZM188.284 65.9208L186.953 55.1622C185.898 55.8015 185.017 56.7753 184.309 58.0815C183.602 59.3877 183.247 60.8061 183.247 62.3346C183.247 63.6958 183.545 64.8009 184.14 65.6498C184.736 66.4987 185.465 66.9221 186.325 66.9221C187.185 66.9221 187.808 66.5877 188.281 65.9208H188.284Z" fill="white"/>
<path d="M203.956 68.8465L203.718 68.8253C202.769 68.7385 201.577 68.9651 200.145 69.5049C199.196 67.6313 198.083 65.6879 196.802 63.6725C197.607 63.2999 198.419 63.1496 199.236 63.2237C201.03 63.3867 203.32 64.6696 206.109 67.0725C206.654 67.5128 207.468 67.7817 208.55 67.8812C209.42 67.9595 210.13 67.7457 210.684 67.2376C211.235 66.7295 211.539 66.1706 211.594 65.5609C211.651 64.9237 211.472 64.3288 211.058 63.7741C210.643 63.2195 209.771 62.6458 208.442 62.0488C207.675 61.6995 206.948 61.3692 206.257 61.0538C205.566 60.7405 204.954 60.461 204.417 60.2155C203.88 59.972 203.154 59.6396 202.232 59.2205C200.876 58.6235 199.864 57.7555 199.196 56.6208C198.527 55.4861 198.25 54.2942 198.364 53.0494C198.527 51.2499 199.308 49.6812 200.705 48.3433C202.104 47.0053 203.844 46.4316 205.928 46.62C206.64 46.6856 207.626 46.8783 208.888 47.2043C210.147 47.5282 210.872 47.6997 211.055 47.7166C211.662 47.7717 212.363 47.6552 213.162 47.3631C213.377 47.9135 213.69 48.6396 214.1 49.5415C214.51 50.4433 214.873 51.2033 215.19 51.8173L215.623 52.7784C214.92 52.9097 214.33 52.9541 213.855 52.9118C213.221 52.8546 212.756 52.7848 212.456 52.7001C212.158 52.6175 211.664 52.355 210.971 51.9168C210.278 51.4764 209.378 50.7884 208.267 49.8485C207.303 49.0355 206.399 48.5888 205.554 48.5126C205.026 48.4639 204.565 48.6312 204.172 49.0144C203.779 49.3975 203.557 49.8527 203.511 50.3777C203.407 51.5124 204.476 52.6281 206.718 53.7268C207.506 54.1333 209.414 54.9356 212.446 56.1317C213.84 56.5933 214.905 57.4718 215.638 58.7674C216.371 60.063 216.68 61.3608 216.561 62.6606C216.386 64.5998 215.532 66.2997 214.003 67.7668C212.473 69.2339 210.496 69.8542 208.068 69.634C207.039 69.5409 205.666 69.2763 203.95 68.8402L203.956 68.8465Z" fill="white"/>
<path d="M119.823 80.2318H116.201V94.4517C116.201 94.9789 116.381 95.4044 116.742 95.7241C117.101 96.0437 117.602 96.2046 118.24 96.2046C119.24 96.2046 120.099 95.94 120.82 95.4129C120.541 96.5539 119.869 97.5595 118.802 98.4359C117.733 99.3124 116.326 99.7485 114.579 99.7485C112.941 99.7485 111.659 99.2891 110.729 98.3724C109.8 97.4558 109.335 96.2321 109.335 94.7037V80.2339H107.087C110.332 77.8438 112.652 76.6646 116.201 74.7614V77.5241H119.823V80.2339V80.2318Z" fill="white"/>
<path d="M140.553 87.5164H128.485C129.096 89.9086 130.247 91.8118 131.94 93.2302C133.632 94.6486 135.616 95.3557 137.891 95.3557C139.001 95.3557 140.319 95.0932 141.844 94.5639C141.346 95.7304 140.368 96.808 138.91 97.7945C137.454 98.781 135.531 99.2743 133.146 99.2743C129.789 99.2743 127.008 98.2327 124.803 96.1475C122.597 94.0622 121.494 91.2275 121.494 87.6413C121.494 84.0551 122.548 81.4152 124.657 79.385C126.765 77.3569 129.22 76.3407 132.022 76.3407C132.827 76.3407 133.7 76.508 134.644 76.8403C135.586 77.1748 136.531 77.6829 137.473 78.3625C138.415 79.0441 139.199 80.0159 139.825 81.2818C140.448 82.5478 140.761 84.0001 140.761 85.6386C140.761 86.1954 140.691 86.8199 140.553 87.5143V87.5164ZM127.777 85.1814H133.395C133.423 85.0141 133.438 84.7368 133.438 84.3473C133.438 82.8188 133.091 81.5528 132.396 80.5536C131.703 79.5522 130.883 79.0526 129.941 79.0526C129.191 79.0526 128.601 79.3998 128.172 80.0942C127.741 80.7907 127.528 81.7074 127.528 82.8463C127.528 83.4031 127.613 84.18 127.777 85.1814Z" fill="white"/>
<path d="M144.382 98.7006C144.826 98.311 145.187 97.8114 145.464 97.1996C145.74 96.5878 145.88 96.031 145.88 95.5314V80.8944C145.88 79.7279 145.394 78.8515 144.424 78.2672C145.284 78.2672 146.408 78.0936 147.794 77.7464C149.18 77.3992 150.346 77.0457 151.291 76.6837L152.746 76.1841V95.5738C152.746 95.9633 152.877 96.4629 153.142 97.0747C153.406 97.6865 153.771 98.2285 154.244 98.7006H144.382Z" fill="white"/>
<path d="M158.43 98.7493C158.873 98.4169 159.226 97.9639 159.49 97.3944C159.754 96.8249 159.885 96.3316 159.885 95.9146V81.6121C159.885 80.5832 159.4 79.639 158.43 78.7774L166.794 76.2328V80.1937C167.627 78.7478 168.459 77.7612 169.292 77.2341C170.124 76.707 171.066 76.4423 172.121 76.4423C173.175 76.4423 174.098 76.7959 174.804 77.5051C175.512 78.2143 175.865 79.1246 175.865 80.236C175.865 81.3475 175.579 82.2789 175.011 82.9458C174.443 83.6127 173.714 83.9471 172.826 83.9471C172.271 83.9471 171.662 83.7947 170.995 83.4878C170.773 83.3777 170.496 83.2104 170.162 82.986C169.828 82.7637 169.539 82.569 169.287 82.4017C169.038 82.2345 168.884 82.1519 168.829 82.1519C168.552 82.1519 168.246 82.2493 167.914 82.4441C167.58 82.6388 167.304 82.8188 167.082 82.986L166.79 83.2782V96.1644C166.79 96.609 166.942 97.0959 167.249 97.623C167.553 98.1523 167.942 98.527 168.413 98.7493H158.426H158.43Z" fill="white"/>
<path d="M189.241 98.5736L189.074 97.3647C187.132 98.5884 185.161 99.2002 183.164 99.2002C181.278 99.2002 179.71 98.5757 178.461 97.3245C177.213 96.0734 176.589 94.4623 176.589 92.4872C176.589 91.3757 176.908 90.2347 177.546 89.0682C178.212 87.817 179.197 86.7543 180.5 85.8778C181.804 85.0014 184.079 84.0911 187.324 83.1469C187.324 82.2853 187.075 81.557 186.574 80.9579C186.076 80.3609 185.284 80.0624 184.202 80.0624C182.676 80.0624 180.899 80.6869 178.875 81.9381C178.542 82.1604 178.292 82.3128 178.125 82.3975C178.32 80.814 179.256 79.3744 180.935 78.0809C182.613 76.7874 184.798 76.1417 187.489 76.1417C191.512 76.1417 193.8 78.4344 194.356 83.022L195.854 95.8659C195.964 96.9773 196.519 97.8813 197.519 98.5757H189.237L189.241 98.5736ZM188.865 95.4044L187.534 84.6458C186.479 85.2851 185.598 86.2589 184.891 87.5651C184.183 88.8713 183.83 90.2897 183.83 91.8182C183.83 93.1794 184.128 94.2845 184.724 95.1334C185.319 95.9823 186.048 96.4057 186.908 96.4057C187.768 96.4057 188.391 96.0713 188.865 95.4044Z" fill="white"/>
<path d="M199.205 95.2731C199.205 93.9945 199.606 92.9995 200.411 92.2924C201.216 91.5832 202.228 91.2296 203.449 91.2296C204.476 91.2296 205.37 91.6192 206.133 92.3961C206.895 93.1752 207.278 94.0918 207.278 95.1482C207.278 96.2046 206.897 97.1361 206.133 97.9427C205.37 98.7493 204.392 99.1515 203.198 99.1515C202.004 99.1515 201.007 98.7683 200.284 98.0041C199.564 97.2398 199.203 96.3295 199.203 95.2731H199.205Z" fill="white"/>
<path d="M52.5055 98.1417C52.4862 98.146 52.4626 98.1524 52.4434 98.1567C52.4626 98.1867 52.4819 98.2231 52.5012 98.2531C52.5012 98.2146 52.5055 98.1803 52.5055 98.1417Z" fill="white"/>
<path d="M33.0078 78.3513C33.0078 78.3513 33.0179 78.3463 33.0204 78.3413" stroke="white" stroke-linecap="round" stroke-linejoin="round"/>
<path d="M61.5375 69.4583C61.5225 69.469 61.5096 69.4776 61.4946 69.4883C61.4946 69.4883 61.4946 69.4926 61.4989 69.4926C61.5096 69.4819 61.5267 69.469 61.5375 69.4583Z" fill="white"/>
<path d="M42.4709 65.0846C40.2208 65.671 37.8523 65.6413 35.6255 64.9702C35.1226 64.8178 34.8268 65.5863 35.3339 65.7387C37.7002 66.4522 40.2208 66.5178 42.6146 65.8933C43.1217 65.762 42.9843 64.9491 42.473 65.0824L42.4709 65.0846Z" fill="white"/>
<path d="M46.3585 61.9302C44.0344 61.5005 41.799 60.8252 39.6778 59.7751C39.251 59.5655 38.8031 59.3792 38.3298 59.3433C38.0509 59.3221 37.7615 59.3602 37.5016 59.4682C37.3051 59.5507 37.0516 59.7264 36.929 59.9021C36.5445 59.6058 36.5487 59.502 36.291 59.3877C35.9466 59.2353 35.7057 59.4068 35.4078 59.6058C34.8416 59.9889 34.3176 60.5986 34.081 61.2189C34.0472 61.31 33.6817 62.2753 33.9162 62.2922C35.8642 62.432 37.8143 62.5463 39.7686 62.5865C42.6188 62.6458 45.4774 62.5505 48.3022 62.1441C47.679 62.1271 47.0282 62.053 46.3627 61.9281L46.3585 61.9302Z" fill="white"/>
<path d="M115.834 27.04C112.777 25.5327 110.248 23.1511 108.557 20.1872C102.973 22.1285 96.6328 25.0924 90.1592 24.489C84.2539 24.9653 85.4624 14.5031 84.1123 10.3495C84.2116 6.61086 78.7923 6.30178 76.7746 3.5412C71.613 -1.91857 56.105 0.95633 48.594 0.858948C41.7105 2.04447 31.4973 2.036 26.4582 5.58623C32.5241 9.23807 28.29 19.0758 28.571 25.2575C23.9694 29.4026 -0.691244 23.9386 0.644046 28.6743C4.9774 35.8214 19.8748 37.8897 27.8083 39.6214C30.7853 44.1709 28.3872 49.3575 30.0711 54.1885C31.1106 59.426 34.5312 56.5681 37.8631 55.3529C45.3572 52.2896 53.7472 52.0186 60.88 47.8968C60.7131 53.9006 63.7724 59.6398 68.748 62.9741C69.1368 63.2324 69.5932 62.6439 69.2445 62.3284C65.2514 58.6639 63.3181 52.9014 64.1928 47.5581C63.9604 48.987 69.7263 56.043 69.9692 53.5026C67.5395 51.1168 66.3141 47.3739 68.5051 44.4207C72.2426 41.9438 77.0767 41.2473 81.2093 39.4563C82.57 46.309 79.2444 55.9435 71.6975 52.0186C72.1349 57.7028 66.9796 85.5648 75.6315 82.9778C73.2018 81.4853 73.8061 76.8342 76.6499 79.9208C82.7031 88.8207 78.9571 100.947 84.0891 110.501C76.933 108.797 74.3639 101.25 70.8397 95.7243C73.8357 93.8253 76.3583 91.1642 78.3401 88.2279C78.1077 86.3586 70.0939 93.1246 68.1818 93.4548C44.36 87.4235 40.8844 77.6746 40.8844 77.6746C40.8844 77.6746 46.908 83.6531 63.0181 68.7006C56.4135 72.073 44.1086 81.7965 39.1287 74.9755C35.7672 71.349 35.1186 70.2312 33.4579 68.1481C32.6889 69.9497 35.5771 72.1831 35.8771 74.116C31.9135 80.6342 23.2911 82.7851 16.7372 81.4133C13.9061 80.8205 9.2854 84.5592 11.2947 85.7913C27.671 73.5253 44.2438 108.373 54.5543 118.046C54.8458 118.389 55.3064 118.012 55.2409 117.646C53.0246 109.593 59.0609 103.655 62.2279 96.9902C69.1051 101.239 77.1359 113.501 85.6314 111.667C85.7603 107.328 84.0785 102.638 83.5841 98.1948C82.8869 93.9142 82.2087 89.5045 82.4834 85.154C84.9891 85.8018 87.5667 86.0644 90.1486 85.9331C91.9825 93.4294 94.8876 102.456 103.104 104.876C103.544 105.007 102.728 104.332 102.244 104.089C94.1883 100.356 94.3657 90.5164 92.1642 83.2805C88.7563 82.982 85.0589 83.4583 81.8051 82.3384C80.0367 80.4479 76.1386 73.3094 73.8547 77.717C73.6265 75.492 73.73 73.2374 73.711 71.0061C76.2569 73.3538 80.2501 74.1244 83.6095 74.063C85.8744 73.8937 86.8949 70.7245 89.1471 71.131C90.7275 71.8635 97.4673 71.0167 95.6461 68.8319C93.0981 69.2468 90.6409 67.6252 88.8873 65.686C92.8213 67.4368 97.6511 66.5646 101.182 64.1004C101.809 62.7878 96.4046 62.9254 95.3228 61.5938C105.312 58.882 90.3176 61.632 90.5395 52.9395C90.3578 48.7118 93.8291 45.3035 93.696 41.0525C93.8587 38.8529 91.7839 37.2779 91.8071 35.1757C98.1138 32.5781 112.32 31.9091 115.828 27.0358L115.834 27.04ZM53.2401 113.552C44.7171 103.197 36.4074 92.6779 27.8738 82.3342C30.088 81.1042 33.9185 79.3259 37.0856 75.5344C42.1437 79.6731 44.2311 87.5674 48.163 93.3257C55.7987 102.615 50.1744 94.4668 46.5573 87.0784C49.4476 89.0578 57.7446 93.3956 61.1589 94.3249C57.7699 99.5539 52.3316 106.93 53.2401 113.552ZM79.5466 23.1574L78.1901 13.0529C76.3837 11.5858 68.0846 6.03927 70.4087 3.1432C78.6275 15.8326 81.6509 3.89897 83.2249 22.9648C83.2249 22.9648 80.903 21.2161 79.5466 23.1574Z" fill="white"/>
</g>
<defs>
<clipPath id="clip0_193_205">
<rect width="216" height="118" fill="white" transform="translate(0.591064 0.187653)"/>
</clipPath>
</defs>
</svg>
