<svg width="646" height="397" viewBox="0 0 646 397" fill="none" xmlns="http://www.w3.org/2000/svg">
<path d="M8.23828 201.322C15.2546 193.585 18.7751 183.943 18.7751 172.407V29.7518C18.7751 27.2279 17.7924 23.5792 15.8392 18.8057C13.8861 14.0323 11.4354 10.027 8.48706 6.78981H114.59C126.346 6.78981 155.879 4.54025 162.895 0.0411377C166.155 17.1597 172.86 34.4429 182.986 51.9181C178.408 53.0018 175.223 53.5367 173.432 53.5367C164.363 53.5367 155.456 51.6301 146.536 50.2996C136.149 48.7496 125.997 45.2518 116.655 40.0119C108.395 35.3757 100.906 29.0248 92.3964 24.9234C82.9418 20.3695 73.3007 19.4916 63.1246 19.4916V81.0938C68.1877 81.6288 82.1208 81.9031 87.0222 81.9031C101.727 81.9031 113.197 80.7783 121.444 78.5288C129.692 76.2792 136.845 72.3562 142.879 66.7734C150.554 89.8314 157.011 106.758 162.236 117.567L164.935 123.246L153.416 125.673C140.217 114.59 123.833 105.674 107.71 101.079C93.1677 96.9367 77.6548 97.0053 63.1495 101.271C63.0624 115.372 63.1246 129.487 63.1246 143.588V179.978C63.1246 182.681 64.0576 186.151 65.9361 190.376C67.8146 194.614 70.5514 198.249 74.1466 201.322H8.22583H8.23828Z" fill="white"/>
<path d="M176.056 128.91C176.031 116.483 177.847 105.263 181.517 95.2631C185.174 85.2635 189.976 77.3215 195.935 71.4507C201.894 65.5936 208.288 61.1219 215.143 58.0356C221.997 54.963 228.939 53.413 235.968 53.3993C251.481 53.3719 265.302 60.1891 277.419 73.8511C289.523 87.5131 295.606 104.975 295.644 126.236C295.681 150.199 289.747 169.073 277.854 182.872C265.949 196.672 251.58 203.599 234.761 203.626C227.894 203.64 221.114 202.117 214.409 199.072C207.704 196.027 201.446 191.583 195.637 185.739C189.827 179.896 185.112 172.022 181.504 162.133C177.897 152.243 176.081 141.16 176.056 128.91ZM249.627 167.4L249.503 95.5237C249.49 85.2635 248.246 78.1445 245.796 74.1803C243.332 70.2299 239.663 68.2546 234.761 68.2546C226.103 68.2683 221.786 75.4011 221.811 89.6254L221.935 164.19C221.96 181.309 226.463 189.854 235.458 189.827C244.925 189.813 249.652 182.324 249.627 167.372V167.4Z" fill="white"/>
<path d="M301.977 201.267C304.589 199.113 306.667 196.178 308.222 192.488C309.777 188.798 310.548 185.602 310.548 182.9V90.229C310.548 83.5626 307.687 77.4449 301.977 71.8622L351.228 55.3746V81.0388C356.129 71.6702 361.031 65.2781 365.932 61.8626C370.833 58.4471 376.382 56.7325 382.602 56.7325C388.822 56.7325 394.234 59.0233 398.401 63.6184C402.569 68.2135 404.646 74.1118 404.646 81.3131C404.646 88.5144 402.967 94.5498 399.62 98.8706C396.274 103.191 391.982 105.359 386.757 105.359C383.485 105.359 379.902 104.371 375.971 102.382C374.665 101.669 373.035 100.585 371.07 99.145C369.117 97.7047 367.4 96.4427 365.92 95.3591C364.452 94.2755 363.556 93.7405 363.22 93.7405C361.59 93.7405 359.787 94.3715 357.833 95.6334C355.88 96.8954 354.238 98.0613 352.932 99.145L351.215 101.038V184.532C351.215 187.413 352.111 190.568 353.915 193.983C355.706 197.412 357.995 199.84 360.769 201.28H301.964L301.977 201.267Z" fill="white"/>
<path d="M480.642 198.249L479.66 190.417C468.227 198.345 456.62 202.31 444.864 202.31C433.755 202.31 424.525 198.263 417.172 190.157C409.82 182.05 406.15 171.611 406.15 158.814C406.15 151.612 408.029 144.219 411.786 136.661C415.705 128.554 421.502 121.668 429.19 115.99C436.865 110.311 450.263 104.413 469.372 98.295C469.372 92.7122 467.904 87.9799 464.968 84.1118C462.02 80.2436 457.367 78.3096 450.997 78.3096C442.016 78.3096 431.553 82.356 419.636 90.4627C417.683 91.9029 416.202 92.8905 415.232 93.4392C416.376 83.179 421.887 73.8516 431.777 65.4706C441.655 57.0896 454.518 52.906 470.367 52.906C494.053 52.906 507.526 67.7613 510.798 97.4857L519.618 180.706C520.265 187.907 523.536 193.764 529.421 198.263H480.655L480.642 198.249ZM478.441 177.715L470.603 108.006C464.396 112.149 459.208 118.459 455.04 126.922C450.873 135.385 448.783 144.576 448.783 154.479C448.783 163.299 450.537 170.459 454.045 175.96C457.553 181.46 461.845 184.203 466.909 184.203C471.972 184.203 475.641 182.036 478.428 177.715H478.441Z" fill="white"/>
<path d="M570.724 196.671L569.318 196.534C563.732 195.972 556.716 197.439 548.282 200.937C542.696 188.798 536.14 176.206 528.601 163.147C533.341 160.733 538.118 159.759 542.932 160.239C553.494 161.296 566.979 169.608 583.4 185.177C586.61 188.03 591.399 189.772 597.769 190.416C602.894 190.924 607.074 189.539 610.333 186.246C613.58 182.954 615.372 179.333 615.695 175.383C616.031 171.254 614.974 167.4 612.535 163.806C610.097 160.212 604.959 156.495 597.134 152.627C592.619 150.363 588.339 148.223 584.271 146.18C580.203 144.15 576.595 142.339 573.436 140.748C570.276 139.17 565.996 137.017 560.572 134.301C552.586 130.433 546.627 124.809 542.696 117.457C538.752 110.104 537.123 102.382 537.794 94.3164C538.752 82.6571 543.355 72.4929 551.578 63.8239C559.814 55.1549 570.064 51.4376 582.33 52.6584C586.523 53.0836 592.332 54.3318 599.759 56.4442C607.174 58.5429 611.441 59.654 612.523 59.7637C616.093 60.1203 620.223 59.3659 624.926 57.473C626.195 61.0394 628.036 65.7442 630.449 71.5876C632.863 77.431 635.002 82.3553 636.868 86.3332L639.419 92.5606C635.276 93.4111 631.805 93.6991 629.006 93.4248C625.274 93.0544 622.537 92.6018 620.771 92.0531C619.017 91.5181 616.106 89.8173 612.025 86.9779C607.945 84.1248 602.645 79.6668 596.102 73.5765C590.429 68.3093 585.105 65.415 580.128 64.9212C577.018 64.6058 574.306 65.6894 571.993 68.1721C569.679 70.6549 568.372 73.604 568.099 77.0058C567.489 84.358 573.784 91.5867 586.983 98.7057C591.623 101.339 602.857 106.538 620.709 114.288C628.919 117.278 635.189 122.971 639.506 131.365C643.823 139.76 645.639 148.169 644.942 156.591C643.91 169.155 638.884 180.17 629.877 189.676C620.87 199.181 609.226 203.2 594.932 201.774C588.874 201.17 580.788 199.456 570.686 196.63L570.724 196.671Z" fill="white"/>
<path d="M75.3406 270.442H54.018V362.578C54.018 365.993 55.0754 368.75 57.2027 370.821C59.3175 372.893 62.2659 373.935 66.0229 373.935C71.9071 373.935 76.9702 372.22 81.2123 368.805C79.5702 376.198 75.6142 382.714 69.3319 388.393C63.0372 394.071 54.752 396.897 44.4639 396.897C34.8227 396.897 27.2715 393.921 21.7978 387.981C16.3241 382.042 13.5873 374.113 13.5873 364.21V270.455H0.35083C19.459 254.969 33.1184 247.329 54.018 234.997V252.898H75.3406V270.455V270.442Z" fill="white"/>
<path d="M197.404 317.641H126.345C129.94 333.141 136.72 345.472 146.685 354.663C156.65 363.853 168.331 368.434 181.729 368.434C188.26 368.434 196.023 366.733 205.005 363.304C202.069 370.862 196.309 377.844 187.725 384.236C179.154 390.628 167.833 393.824 153.788 393.824C134.021 393.824 117.649 387.075 104.662 373.564C91.6743 360.053 85.1804 341.687 85.1804 318.45C85.1804 295.214 91.3881 278.109 103.803 264.955C116.219 251.814 130.674 245.23 147.17 245.23C151.91 245.23 157.048 246.313 162.608 248.467C168.157 250.634 173.718 253.926 179.266 258.329C184.814 262.746 189.43 269.042 193.112 277.245C196.782 285.448 198.623 294.857 198.623 305.474C198.623 309.082 198.212 313.128 197.404 317.627V317.641ZM122.178 302.511H155.256C155.418 301.428 155.505 299.631 155.505 297.107C155.505 287.203 153.465 279.001 149.372 272.526C145.292 266.038 140.465 262.801 134.916 262.801C130.5 262.801 127.029 265.051 124.504 269.55C121.966 274.063 120.71 280.002 120.71 287.382C120.71 290.989 121.207 296.023 122.178 302.511Z" fill="white"/>
<path d="M219.945 390.107C222.557 387.583 224.684 384.346 226.314 380.382C227.944 376.417 228.765 372.81 228.765 369.573V274.735C228.765 267.177 225.903 261.498 220.193 257.712C225.257 257.712 231.875 256.587 240.036 254.338C248.196 252.088 255.063 249.798 260.624 247.452L269.195 244.215V369.847C269.195 372.371 269.967 375.608 271.522 379.572C273.077 383.537 275.229 387.048 278.016 390.107H219.945Z" fill="white"/>
<path d="M302.661 390.423C305.273 388.269 307.351 385.334 308.906 381.644C310.461 377.954 311.232 374.758 311.232 372.056V279.385C311.232 272.719 308.371 266.601 302.661 261.018L351.912 244.53V270.195C356.813 260.826 361.715 254.434 366.616 251.019C371.518 247.603 377.066 245.888 383.274 245.888C389.481 245.888 394.918 248.179 399.073 252.774C403.24 257.369 405.318 263.268 405.318 270.469C405.318 277.67 403.638 283.706 400.292 288.027C396.945 292.347 392.654 294.515 387.429 294.515C384.157 294.515 380.574 293.527 376.643 291.538C375.337 290.825 373.707 289.741 371.742 288.287C369.776 286.847 368.072 285.585 366.591 284.501C365.123 283.418 364.215 282.883 363.892 282.883C362.262 282.883 360.458 283.514 358.505 284.776C356.54 286.038 354.91 287.203 353.604 288.287L351.887 290.18V373.674C351.887 376.555 352.783 379.71 354.586 383.125C356.378 386.554 358.667 388.982 361.441 390.423H302.636H302.661Z" fill="white"/>
<path d="M484.077 389.283L483.094 381.45C471.662 389.379 460.055 393.343 448.299 393.343C437.19 393.343 427.959 389.296 420.607 381.19C413.255 373.083 409.585 362.645 409.585 349.847C409.585 342.645 411.464 335.252 415.221 327.694C419.139 319.587 424.936 312.702 432.612 307.023C440.288 301.344 453.686 295.446 472.794 289.328C472.794 283.745 471.326 279.027 468.378 275.145C465.442 271.277 460.777 269.343 454.407 269.343C445.425 269.343 434.963 273.389 423.046 281.496C421.08 282.936 419.612 283.924 418.629 284.472C419.774 274.212 425.285 264.885 435.175 256.504C445.052 248.123 457.915 243.939 473.764 243.939C497.451 243.939 510.923 258.795 514.195 288.519L523.015 371.739C523.662 378.94 526.934 384.797 532.818 389.296H484.052L484.077 389.283ZM481.863 368.749L474.026 299.04C467.818 303.182 462.63 309.492 458.463 317.955C454.295 326.418 452.218 335.609 452.218 345.512C452.218 354.332 453.972 361.492 457.48 366.993C460.988 372.493 465.28 375.237 470.343 375.237C475.406 375.237 479.076 373.069 481.863 368.749Z" fill="white"/>
<path d="M542.744 367.9C542.744 359.615 545.108 353.168 549.848 348.586C554.587 343.991 560.546 341.701 567.737 341.701C573.783 341.701 579.045 344.224 583.536 349.258C588.027 354.306 590.278 360.246 590.278 367.09C590.278 373.935 588.039 379.97 583.536 385.197C579.045 390.423 573.285 393.029 566.256 393.029C559.227 393.029 553.356 390.546 549.101 385.594C544.859 380.643 542.732 374.744 542.732 367.9H542.744Z" fill="white"/>
</svg>
