<svg width="128" height="128" viewBox="0 0 128 128" fill="none" xmlns="http://www.w3.org/2000/svg">
<path d="M126.637 55.3966L115.09 61.8077C113.402 62.7446 113.402 65.1396 115.09 66.0765L126.637 72.4877C128.68 73.6228 128.137 76.6605 125.822 77.0378L112.747 79.1706C110.838 79.484 110.006 81.7319 111.266 83.1804L119.89 93.0961C121.415 94.8516 119.852 97.5215 117.546 97.0963L104.519 94.6949C102.617 94.3431 101.053 96.1785 101.734 97.9628L106.396 110.187C107.221 112.352 104.823 114.334 102.805 113.158L91.3963 106.51C89.7304 105.538 87.6264 106.737 87.6456 108.643L87.7831 121.702C87.8087 124.014 84.8669 125.069 83.3768 123.281L74.9639 113.19C73.7361 111.716 71.3411 112.131 70.6984 113.932L66.2953 126.249C65.5151 128.429 62.3847 128.429 61.6077 126.249L57.2046 113.932C56.5619 112.131 54.1701 111.716 52.939 113.19L44.5261 123.281C43.0361 125.069 40.0943 124.014 40.1199 121.702L40.2574 108.643C40.2766 106.734 38.1726 105.538 36.5066 106.51L25.0976 113.158C23.0768 114.334 20.6818 112.352 21.5067 110.187L26.1688 97.9628C26.8499 96.1754 25.2895 94.3431 23.3837 94.6949L10.3568 97.0963C8.05129 97.5215 6.48449 94.8516 8.01294 93.0961L16.6368 83.1804C17.8967 81.7319 17.0653 79.4808 15.1563 79.1706L2.0814 77.0378C-0.233648 76.6605 -0.777234 73.6228 1.26602 72.4877L12.8125 66.0765C14.5008 65.1396 14.5008 62.7446 12.8125 61.8077L1.26602 55.3966C-0.777234 54.2614 -0.233648 51.2237 2.0814 50.8464L15.1563 48.7136C17.0653 48.4003 17.8967 46.1524 16.6368 44.7039L8.01294 34.7881C6.48769 33.0327 8.05129 30.3627 10.3568 30.788L23.3837 33.1893C25.2863 33.5411 26.8499 31.7057 26.1688 29.9214L21.5067 17.6971C20.6818 15.5323 23.08 13.5498 25.0976 14.7265L36.5066 21.3743C38.1726 22.3464 40.2766 21.1472 40.2574 19.2415L40.1199 6.18256C40.0943 3.87071 43.0361 2.81548 44.5261 4.60293L52.939 14.6945C54.1669 16.1686 56.5619 15.7529 57.2046 13.9527L61.6077 1.63556C62.3879 -0.545188 65.5183 -0.545188 66.2953 1.63556L70.6984 13.9527C71.3411 15.7529 73.7329 16.1686 74.9639 14.6945L83.3768 4.60293C84.8669 2.81548 87.8087 3.87071 87.7831 6.18256L87.6456 19.2415C87.6264 21.1504 89.7304 22.3464 91.3963 21.3743L102.805 14.7265C104.826 13.5498 107.221 15.5323 106.396 17.6971L101.734 29.9214C101.053 31.7089 102.613 33.5411 104.519 33.1893L117.546 30.788C119.852 30.3627 121.418 33.0327 119.89 34.7881L111.266 44.7039C110.006 46.1524 110.838 48.4035 112.747 48.7136L125.822 50.8464C128.137 51.2237 128.68 54.2614 126.637 55.3966Z" fill="#00FFFF"/>
</svg>
