<svg width="99" height="99" viewBox="0 0 99 99" fill="none" xmlns="http://www.w3.org/2000/svg">
<path d="M49.8332 0.977906L53.0231 25.8185C53.1162 26.5388 54.0717 26.7299 54.4319 26.0978L66.8852 4.36871C67.3262 3.59696 68.5071 4.08696 68.2744 4.94446L61.7157 29.1137C61.5246 29.8144 62.3356 30.3559 62.9113 29.9124L82.7318 14.6024C83.435 14.0585 84.339 14.9625 83.7951 15.6657L68.4851 35.4862C68.0416 36.0619 68.5831 36.8704 69.2838 36.6818L93.453 30.1231C94.3105 29.8904 94.8005 31.0713 94.0288 31.5123L72.2997 43.9656C71.6701 44.3258 71.8587 45.2813 72.579 45.3744L97.4196 48.5643C98.3016 48.677 98.3016 49.9534 97.4196 50.0686L72.579 53.2585C71.8587 53.3516 71.6676 54.3071 72.2997 54.6672L94.0288 67.1206C94.8005 67.5616 94.3105 68.7425 93.453 68.5097L69.2838 61.9511C68.5831 61.76 68.0416 62.5709 68.4851 63.1467L83.7951 82.9672C84.339 83.6703 83.435 84.5744 82.7318 84.0305L62.9113 68.7204C62.3356 68.277 61.5271 68.8184 61.7157 69.5191L68.2744 93.6884C68.5071 94.5459 67.3262 95.0359 66.8852 94.2641L54.4319 72.5351C54.0717 71.9054 53.1162 72.0941 53.0231 72.8144L49.8332 97.6549C49.7205 98.5369 48.4441 98.5369 48.3289 97.6549L45.139 72.8144C45.0459 72.0941 44.0904 71.903 43.7303 72.5351L31.2769 94.2641C30.8359 95.0359 29.655 94.5459 29.8878 93.6884L36.4464 69.5191C36.6375 68.8184 35.8266 68.277 35.2508 68.7204L15.4303 84.0305C14.7272 84.5744 13.8231 83.6703 14.367 82.9672L29.6771 63.1467C30.1205 62.5709 29.5791 61.7624 28.8784 61.9511L4.7091 68.5097C3.8516 68.7425 3.3616 67.5616 4.13336 67.1206L25.8624 54.6672C26.4921 54.3071 26.3034 53.3516 25.5831 53.2585L0.742555 50.0686C-0.139445 49.9559 -0.139445 48.6794 0.742555 48.5643L25.5831 45.3744C26.3034 45.2813 26.4945 44.3258 25.8624 43.9656L4.13336 31.5123C3.3616 31.0713 3.8516 29.8904 4.7091 30.1231L28.8784 36.6818C29.5791 36.8729 30.1205 36.0619 29.6771 35.4862L14.3695 15.6681C13.8256 14.965 14.7296 14.0609 15.4328 14.6048L35.2533 29.9149C35.829 30.3583 36.6375 29.8169 36.4489 29.1162L29.8902 4.94691C29.6575 4.08941 30.8384 3.59941 31.2794 4.37116L43.7327 26.1002C44.0929 26.7299 45.0484 26.5412 45.1415 25.8209L48.3289 0.977906C48.4416 0.0959062 49.7181 0.0959062 49.8332 0.977906Z" fill="#FB575C"/>
</svg>
