<svg width="318" height="318" viewBox="0 0 318 318" fill="none" xmlns="http://www.w3.org/2000/svg">
<path d="M158.546 315.289L147.344 235.112C147.017 232.788 143.924 232.204 142.783 234.26L103.335 304.945C101.938 307.455 98.1057 305.914 98.8267 303.134L119.143 224.775C119.735 222.503 117.096 220.782 115.251 222.237L51.7717 272.439C49.5197 274.222 46.5665 271.333 48.2982 269.04L97.0437 204.422C98.4555 202.545 96.6772 199.951 94.4203 200.586L16.5755 222.658C13.8137 223.442 12.188 219.642 14.6653 218.189L84.414 177.152C86.4352 175.965 85.7913 172.883 83.4609 172.608L3.09559 163.194C0.242122 162.862 0.196054 158.736 3.0413 158.332L83.1763 147.124C85.5 146.797 86.0829 143.702 84.0278 142.561L13.3802 103.093C10.8711 101.695 12.4115 97.8602 15.1901 98.5816L93.5083 118.908C95.7789 119.501 97.4988 116.86 96.0454 115.015L45.8693 51.5021C44.0868 49.249 46.9748 46.2942 49.266 48.0268L113.851 96.7977C115.727 98.2103 118.319 96.431 117.685 94.1729L95.6239 16.2876C94.841 13.5243 98.6383 11.8979 100.091 14.3765L141.107 84.1615C142.293 86.1837 145.373 85.5394 145.648 83.2078L155.057 2.80066C155.389 -0.0543109 159.513 -0.100402 159.917 2.74634L171.119 82.9231C171.445 85.248 174.539 85.8312 175.68 83.775L215.127 13.0907C216.524 10.5802 220.357 12.1214 219.636 14.9015L199.32 93.2605C198.728 95.5322 201.367 97.2531 203.211 95.7989L266.691 45.5966C268.943 43.8132 271.896 46.7027 270.165 48.9951L221.419 113.614C220.007 115.491 221.786 118.084 224.042 117.449L301.887 95.3771C304.649 94.5939 306.275 98.3931 303.797 99.8465L234.049 140.884C232.028 142.071 232.672 145.152 235.002 145.427L315.367 154.841C318.221 155.174 318.267 159.299 315.421 159.703L235.286 170.911C232.963 171.238 232.38 174.333 234.435 175.475L305.083 214.943C307.592 216.341 306.051 220.175 303.273 219.454L224.954 199.127C222.684 198.535 220.964 201.176 222.417 203.021L272.585 266.526C274.368 268.779 271.48 271.734 269.189 270.001L204.604 221.23C202.728 219.817 200.135 221.597 200.77 223.855L222.831 301.74C223.614 304.503 219.816 306.13 218.364 303.651L177.348 233.866C176.161 231.844 173.081 232.488 172.807 234.82L163.406 315.235C163.074 318.09 158.95 318.136 158.546 315.289Z" fill="#8D52FD"/>
</svg>
