<svg width="99" height="99" viewBox="0 0 99 99" fill="none" xmlns="http://www.w3.org/2000/svg">
<path d="M49.9807 0.977906L53.1706 25.8185C53.2637 26.5388 54.2192 26.7299 54.5793 26.0978L67.0327 4.36871C67.4737 3.59696 68.6546 4.08696 68.4218 4.94446L61.8632 29.1137C61.6721 29.8144 62.483 30.3559 63.0588 29.9124L82.8793 14.6024C83.5824 14.0585 84.4865 14.9625 83.9426 15.6657L68.6325 35.4862C68.1891 36.0619 68.7305 36.8704 69.4312 36.6818L93.6005 30.1231C94.458 29.8904 94.948 31.0713 94.1762 31.5123L72.4472 43.9656C71.8175 44.3258 72.0062 45.2813 72.7265 45.3744L97.567 48.5643C98.449 48.677 98.449 49.9534 97.567 50.0686L72.7265 53.2585C72.0062 53.3516 71.8151 54.3071 72.4472 54.6672L94.1762 67.1206C94.948 67.5616 94.458 68.7425 93.6005 68.5097L69.4312 61.9511C68.7305 61.76 68.1891 62.5709 68.6325 63.1467L83.9426 82.9672C84.4865 83.6703 83.5824 84.5744 82.8793 84.0305L63.0588 68.7204C62.483 68.277 61.6745 68.8184 61.8632 69.5191L68.4218 93.6884C68.6546 94.5459 67.4737 95.0359 67.0327 94.2641L54.5793 72.5351C54.2192 71.9054 53.2637 72.0941 53.1706 72.8144L49.9807 97.6549C49.868 98.5369 48.5915 98.5369 48.4764 97.6549L45.2865 72.8144C45.1934 72.0941 44.2379 71.903 43.8777 72.5351L31.4244 94.2641C30.9834 95.0359 29.8025 94.5459 30.0352 93.6884L36.5939 69.5191C36.785 68.8184 35.974 68.277 35.3983 68.7204L15.5778 84.0305C14.8746 84.5744 13.9706 83.6703 14.5145 82.9672L29.8245 63.1467C30.268 62.5709 29.7265 61.7624 29.0258 61.9511L4.85657 68.5097C3.99907 68.7425 3.50907 67.5616 4.28082 67.1206L26.0099 54.6672C26.6395 54.3071 26.4509 53.3516 25.7306 53.2585L0.890016 50.0686C0.0080156 49.9559 0.0080156 48.6794 0.890016 48.5643L25.7306 45.3744C26.4509 45.2813 26.642 44.3258 26.0099 43.9656L4.28082 31.5123C3.50907 31.0713 3.99907 29.8904 4.85657 30.1231L29.0258 36.6818C29.7265 36.8729 30.268 36.0619 29.8245 35.4862L14.5169 15.6681C13.973 14.965 14.8771 14.0609 15.5802 14.6048L35.4007 29.9149C35.9765 30.3583 36.785 29.8169 36.5963 29.1162L30.0377 4.94691C29.8049 4.08941 30.9858 3.59941 31.4268 4.37116L43.8802 26.1002C44.2403 26.7299 45.1958 26.5412 45.2889 25.8209L48.4764 0.977906C48.5891 0.0959062 49.8655 0.0959062 49.9807 0.977906Z" fill="#00FFFF"/>
</svg>
