<svg width="51" height="51" viewBox="0 0 51 51" fill="none" xmlns="http://www.w3.org/2000/svg">
<path d="M43.6232 41.9467L33.0899 34.8907C32.7843 34.6864 32.3932 34.987 32.5143 35.3348L36.6519 47.319C36.7993 47.7441 36.2192 48.0312 35.9698 47.6569L28.9388 37.1076C28.7352 36.8014 28.2587 36.9303 28.2361 37.2975L27.473 49.953C27.4462 50.4022 26.8004 50.4458 26.7135 50.0043L24.2548 37.5665C24.183 37.2057 23.6944 37.1429 23.533 37.4729L17.985 48.8721C17.7882 49.2766 17.1748 49.0701 17.2636 48.629L19.7515 36.1972C19.8239 35.8372 19.3968 35.5909 19.1214 35.8345L9.63298 44.2433C9.2963 44.5421 8.80962 44.117 9.05943 43.7424L16.1154 33.2091C16.3198 32.9034 16.0191 32.5124 15.6713 32.6334L3.68711 36.771C3.26197 36.9184 2.9749 36.3384 3.3492 36.0889L13.8985 29.0579C14.2047 28.8544 14.0758 28.3779 13.7086 28.3552L1.05313 27.5921C0.603917 27.5653 0.560285 26.9196 1.00182 26.8326L13.4396 24.374C13.8004 24.3022 13.8632 23.8136 13.5332 23.6522L2.13401 18.1042C1.72956 17.9074 1.93598 17.2939 2.37709 17.3828L14.8089 19.8707C15.1689 19.943 15.4152 19.5159 15.1716 19.2405L6.76278 9.75214C6.46402 9.41545 6.8891 8.92877 7.26373 9.17858L17.7971 16.2345C18.1027 16.4389 18.4938 16.1382 18.3727 15.7904L14.2351 3.80627C14.0877 3.38113 14.6678 3.09406 14.9172 3.46835L21.9482 14.0176C22.1517 14.3238 22.6282 14.195 22.6509 13.8278L23.414 1.17229C23.4408 0.723072 24.0865 0.67944 24.1735 1.12097L26.6321 13.5588C26.704 13.9196 27.1925 13.9824 27.3539 13.6524L32.9019 2.25316C33.0988 1.84871 33.7122 2.05514 33.6233 2.49624L31.1354 14.9281C31.0631 15.2881 31.4902 15.5343 31.7656 15.2907L41.254 6.88193C41.5907 6.58318 42.0773 7.00825 41.8275 7.38288L34.7716 17.9162C34.5672 18.2219 34.8679 18.6129 35.2157 18.4918L47.1998 14.3542C47.625 14.2068 47.9121 14.7869 47.5378 15.0363L36.9885 22.0673C36.6823 22.2709 36.8112 22.7474 37.1784 22.77L49.8321 23.5333C50.2813 23.56 50.3249 24.2058 49.8834 24.2928L37.4456 26.7514C37.0848 26.8232 37.022 27.3118 37.352 27.4732L48.7512 33.0212C49.1557 33.218 48.9492 33.8314 48.5081 33.7426L36.0763 31.2547C35.7163 31.1823 35.47 31.6095 35.7136 31.8848L44.1242 41.3731C44.4229 41.7098 43.9979 42.1965 43.6232 41.9467Z" fill="#00FFFF"/>
</svg>
