<svg width="98" height="98" viewBox="0 0 98 98" fill="none" xmlns="http://www.w3.org/2000/svg">
<path d="M49.7522 0.6615L52.9421 25.502C53.0352 26.2223 53.9907 26.4135 54.3508 25.7814L66.8042 4.0523C67.2452 3.28055 68.4261 3.77055 68.1933 4.62805L61.6347 28.7973C61.4436 29.498 62.2545 30.0395 62.8303 29.596L82.6508 14.286C83.3539 13.7421 84.258 14.6461 83.7141 15.3493L68.404 35.1698C67.9606 35.7455 68.502 36.554 69.2027 36.3653L93.3719 29.8067C94.2294 29.574 94.7194 30.7549 93.9477 31.1959L72.2186 43.6492C71.589 44.0094 71.7777 44.9649 72.498 45.058L97.3385 48.2478C98.2205 48.3605 98.2205 49.637 97.3385 49.7522L72.498 52.9421C71.7777 53.0352 71.5865 53.9907 72.2186 54.3508L93.9477 66.8042C94.7194 67.2452 94.2294 68.4261 93.3719 68.1933L69.2027 61.6347C68.502 61.4436 67.9606 62.2545 68.404 62.8303L83.7141 82.6508C84.258 83.3539 83.3539 84.258 82.6508 83.7141L62.8303 68.404C62.2545 67.9606 61.446 68.502 61.6347 69.2027L68.1933 93.3719C68.4261 94.2294 67.2452 94.7194 66.8042 93.9477L54.3508 72.2186C53.9907 71.589 53.0352 71.7777 52.9421 72.498L49.7522 97.3385C49.6395 98.2205 48.363 98.2205 48.2478 97.3385L45.058 72.498C44.9649 71.7777 44.0094 71.5865 43.6492 72.2186L31.1959 93.9477C30.7549 94.7194 29.574 94.2294 29.8067 93.3719L36.3653 69.2027C36.5564 68.502 35.7455 67.9606 35.1698 68.404L15.3493 83.7141C14.6461 84.258 13.7421 83.3539 14.286 82.6508L29.596 62.8303C30.0395 62.2545 29.498 61.446 28.7973 61.6347L4.62805 68.1933C3.77055 68.4261 3.28055 67.2452 4.0523 66.8042L25.7814 54.3508C26.411 53.9907 26.2223 53.0352 25.502 52.9421L0.6615 49.7522C-0.2205 49.6395 -0.2205 48.363 0.6615 48.2478L25.502 45.058C26.2223 44.9649 26.4135 44.0094 25.7814 43.6492L4.0523 31.1959C3.28055 30.7549 3.77055 29.574 4.62805 29.8067L28.7973 36.3653C29.498 36.5564 30.0395 35.7455 29.596 35.1698L14.2884 15.3517C13.7445 14.6486 14.6486 13.7445 15.3517 14.2884L35.1722 29.5984C35.748 30.0419 36.5565 29.5005 36.3678 28.7998L29.8092 4.6305C29.5764 3.773 30.7573 3.283 31.1983 4.05475L43.6517 25.7838C44.0118 26.4134 44.9673 26.2248 45.0604 25.5045L48.2478 0.6615C48.3605 -0.2205 49.637 -0.2205 49.7522 0.6615Z" fill="#1D1D1D"/>
</svg>
